PathFileType	4	(X/Y/Z)	C:/Users/dbak576/Desktop/Duncan Bakke Modelling Files/H22s1/Static_H22s1.trc	
DataRate	CameraRate	NumFrames	NumMarkers	Units	OrigDataRate	OrigDataStartFrame	OrigNumFrames	
200.00	200.00	2	240	mm	200.00	260	37	
Frame#	Time	LFEO			LFEA			LFEL			LFEP			LTIO			LTIA			LTIL			LTIP			PELO			PELA			PELL			PELP			RFEO			RFEA			RFEL			RFEP			RTIO			RTIA			RTIL			RTIP			LFHD			RFHD			LBHD			RBHD			C7			T10			CLAV			STRN			RBack			LASI			RASI			LPSI			RPSI			RACR1			RUA1			RElbow			RElbowM			RFA1			RWRR			RWRU			RCAR			LACR1			LUA1			LElbow			LElbowM			LFA1			LWRR			LWRU			LCAR			RTH1			RTH3			RTH2			RTH4			RLFC			RMFC			RTB1			RTB3			RTB2			RTB4			RLMAL			RMMAL			RCAL			RMT1			RMT5			RToe			LTH1			LTH3			LTH2			LTH4			LLFC			LMFC			LTB1			LTB3			LTB2			LTB4			LLMAL			LMMAL			LCAL			LMT1			LMT5			LToe			CX			LAJC			LFEM1			LFEM10			LFEM11			LFEM12			LFEM13			LFEM14			LFEM15			LFEM16			LFEM2			LFEM3			LFEM4			LFEM5			LFEM6			LFEM7			LFEM8			LFEM9			LFOO1			LFOO2			LFOO3			LFOO4			LFOO5			LFOO6			LHJC			LIC			LIP			LIS			LIT			LKJC			LSI			LTIB1			LTIB10			LTIB11			LTIB12			LTIB13			LTIB14			LTIB15			LTIB16			LTIB2			LTIB3			LTIB4			LTIB5			LTIB6			LTIB7			LTIB8			LTIB9			LeftThighOrigin			LeftTibOrigin			LowerBodyModelVer			LowerTorsoOrigin			MidHJC			MidPelvis			OAnatomy			OCalRig			OHead			OLeftFemur			OLeftFoot			OLeftTibia			OPelvis			ORightFemur			ORightFoot			ORightTibia			OThorax			Oglobal			PELOrigin			RAJC			RFEM1			RFEM10			RFEM11			RFEM12			RFEM13			RFEM14			RFEM15			RFEM16			RFEM2			RFEM3			RFEM4			RFEM5			RFEM6			RFEM7			RFEM8			RFEM9			RFOO1			RFOO2			RFOO3			RFOO4			RFOO5			RFOO6			RHJC			RIC			RIP			RIS			RIT			RKJC			RSI			RTIB1			RTIB10			RTIB11			RTIB12			RTIB13			RTIB14			RTIB15			RTIB16			RTIB2			RTIB3			RTIB4			RTIB5			RTIB6			RTIB7			RTIB8			RTIB9			RightThighOrigin			RightTibOrigin			SACR			SP			ThoraxOrigin			XAnatomy			XCalRig			XHead			XLeftFemur			XLeftFoot			XLeftTibia			XPelvis			XRightFemur			XRightFoot			XRightTibia			XThorax			Xglobal			YAnatomy			YCalRig			YHead			YLeftFemur			YLeftFoot			YLeftTibia			YPelvis			YRightFemur			YRightFoot			YRightTibia			YThorax			Yglobal			ZAnatomy			ZCalRig			ZHead			ZLeftFemur			ZLeftFoot			ZLeftTibia			ZPelvis			ZRightFemur			ZRightFoot			ZRightTibia			ZThorax			Zglobal			avPEL			avTHOR			newLfootmid			newLfootside			newRfootmid			newRfootside			
		X1	Y1	Z1	X2	Y2	Z2	X3	Y3	Z3	X4	Y4	Z4	X5	Y5	Z5	X6	Y6	Z6	X7	Y7	Z7	X8	Y8	Z8	X9	Y9	Z9	X10	Y10	Z10	X11	Y11	Z11	X12	Y12	Z12	X13	Y13	Z13	X14	Y14	Z14	X15	Y15	Z15	X16	Y16	Z16	X17	Y17	Z17	X18	Y18	Z18	X19	Y19	Z19	X20	Y20	Z20	X21	Y21	Z21	X22	Y22	Z22	X23	Y23	Z23	X24	Y24	Z24	X25	Y25	Z25	X26	Y26	Z26	X27	Y27	Z27	X28	Y28	Z28	X29	Y29	Z29	X30	Y30	Z30	X31	Y31	Z31	X32	Y32	Z32	X33	Y33	Z33	X34	Y34	Z34	X35	Y35	Z35	X36	Y36	Z36	X37	Y37	Z37	X38	Y38	Z38	X39	Y39	Z39	X40	Y40	Z40	X41	Y41	Z41	X42	Y42	Z42	X43	Y43	Z43	X44	Y44	Z44	X45	Y45	Z45	X46	Y46	Z46	X47	Y47	Z47	X48	Y48	Z48	X49	Y49	Z49	X50	Y50	Z50	X51	Y51	Z51	X52	Y52	Z52	X53	Y53	Z53	X54	Y54	Z54	X55	Y55	Z55	X56	Y56	Z56	X57	Y57	Z57	X58	Y58	Z58	X59	Y59	Z59	X60	Y60	Z60	X61	Y61	Z61	X62	Y62	Z62	X63	Y63	Z63	X64	Y64	Z64	X65	Y65	Z65	X66	Y66	Z66	X67	Y67	Z67	X68	Y68	Z68	X69	Y69	Z69	X70	Y70	Z70	X71	Y71	Z71	X72	Y72	Z72	X73	Y73	Z73	X74	Y74	Z74	X75	Y75	Z75	X76	Y76	Z76	X77	Y77	Z77	X78	Y78	Z78	X79	Y79	Z79	X80	Y80	Z80	X81	Y81	Z81	X82	Y82	Z82	X83	Y83	Z83	X84	Y84	Z84	X85	Y85	Z85	X86	Y86	Z86	X87	Y87	Z87	X88	Y88	Z88	X89	Y89	Z89	X90	Y90	Z90	X91	Y91	Z91	X92	Y92	Z92	X93	Y93	Z93	X94	Y94	Z94	X95	Y95	Z95	X96	Y96	Z96	X97	Y97	Z97	X98	Y98	Z98	X99	Y99	Z99	X100	Y100	Z100	X101	Y101	Z101	X102	Y102	Z102	X103	Y103	Z103	X104	Y104	Z104	X105	Y105	Z105	X106	Y106	Z106	X107	Y107	Z107	X108	Y108	Z108	X109	Y109	Z109	X110	Y110	Z110	X111	Y111	Z111	X112	Y112	Z112	X113	Y113	Z113	X114	Y114	Z114	X115	Y115	Z115	X116	Y116	Z116	X117	Y117	Z117	X118	Y118	Z118	X119	Y119	Z119	X120	Y120	Z120	X121	Y121	Z121	X122	Y122	Z122	X123	Y123	Z123	X124	Y124	Z124	X125	Y125	Z125	X126	Y126	Z126	X127	Y127	Z127	X128	Y128	Z128	X129	Y129	Z129	X130	Y130	Z130	X131	Y131	Z131	X132	Y132	Z132	X133	Y133	Z133	X134	Y134	Z134	X135	Y135	Z135	X136	Y136	Z136	X137	Y137	Z137	X138	Y138	Z138	X139	Y139	Z139	X140	Y140	Z140	X141	Y141	Z141	X142	Y142	Z142	X143	Y143	Z143	X144	Y144	Z144	X145	Y145	Z145	X146	Y146	Z146	X147	Y147	Z147	X148	Y148	Z148	X149	Y149	Z149	X150	Y150	Z150	X151	Y151	Z151	X152	Y152	Z152	X153	Y153	Z153	X154	Y154	Z154	X155	Y155	Z155	X156	Y156	Z156	X157	Y157	Z157	X158	Y158	Z158	X159	Y159	Z159	X160	Y160	Z160	X161	Y161	Z161	X162	Y162	Z162	X163	Y163	Z163	X164	Y164	Z164	X165	Y165	Z165	X166	Y166	Z166	X167	Y167	Z167	X168	Y168	Z168	X169	Y169	Z169	X170	Y170	Z170	X171	Y171	Z171	X172	Y172	Z172	X173	Y173	Z173	X174	Y174	Z174	X175	Y175	Z175	X176	Y176	Z176	X177	Y177	Z177	X178	Y178	Z178	X179	Y179	Z179	X180	Y180	Z180	X181	Y181	Z181	X182	Y182	Z182	X183	Y183	Z183	X184	Y184	Z184	X185	Y185	Z185	X186	Y186	Z186	X187	Y187	Z187	X188	Y188	Z188	X189	Y189	Z189	X190	Y190	Z190	X191	Y191	Z191	X192	Y192	Z192	X193	Y193	Z193	X194	Y194	Z194	X195	Y195	Z195	X196	Y196	Z196	X197	Y197	Z197	X198	Y198	Z198	X199	Y199	Z199	X200	Y200	Z200	X201	Y201	Z201	X202	Y202	Z202	X203	Y203	Z203	X204	Y204	Z204	X205	Y205	Z205	X206	Y206	Z206	X207	Y207	Z207	X208	Y208	Z208	X209	Y209	Z209	X210	Y210	Z210	X211	Y211	Z211	X212	Y212	Z212	X213	Y213	Z213	X214	Y214	Z214	X215	Y215	Z215	X216	Y216	Z216	X217	Y217	Z217	X218	Y218	Z218	X219	Y219	Z219	X220	Y220	Z220	X221	Y221	Z221	X222	Y222	Z222	X223	Y223	Z223	X224	Y224	Z224	X225	Y225	Z225	X226	Y226	Z226	X227	Y227	Z227	X228	Y228	Z228	X229	Y229	Z229	X230	Y230	Z230	X231	Y231	Z231	X232	Y232	Z232	X233	Y233	Z233	X234	Y234	Z234	X235	Y235	Z235	X236	Y236	Z236	X237	Y237	Z237	X238	Y238	Z238	X239	Y239	Z239	X240	Y240	Z240	

5	0.020	-97.07504	-462.33368	458.09125	220.84430	-462.45126	449.17645	-97.21976	-144.42703	448.73679	-88.16065	-452.97885	775.87292	-156.40416	-481.22455	71.58958	192.88042	-481.86139	25.45529	-164.95053	-123.98599	1.95332	-109.49977	-411.06888	425.73615	-6.43715	-370.94388	882.20313	231.58028	-370.99564	881.58179	-6.39545	-172.59612	881.65009	-5.91923	-370.39096	1080.55017	122.80803	-459.94467	457.80612	456.74878	-459.92157	458.25323	122.78425	-126.00397	458.30258	122.36097	-460.44116	791.74652	172.71391	-462.60315	68.82364	533.65826	-462.54681	121.09079	165.89169	-100.96368	115.54641	120.89388	-509.82135	426.73117	-51.28054	-419.41476	1531.73303	26.65221	-419.72607	1535.87793	-82.29504	-583.09088	1481.71814	40.44020	-591.04865	1479.42725	-14.46255	-574.54907	1345.73035	-7.60083	-566.29382	1081.49072	-12.37840	-433.14182	1298.23242	-13.09375	-360.12210	1196.18127	132.47427	-561.11035	1258.09436	-160.59669	-381.55783	870.59644	147.72240	-360.32986	893.80969	-37.07396	-579.16766	898.56946	57.36650	-582.90295	901.36121	121.63743	-483.92618	1326.05640	257.35040	-431.11038	1310.68542	381.83273	-372.48648	1277.06238	356.71713	-289.00916	1230.73242	484.25125	-306.91611	1265.42322	568.28809	-243.59044	1348.67139	577.26367	-228.91989	1277.13623	624.51245	-235.18307	1314.52808	-165.13277	-481.60968	1312.77271	-292.95810	-397.42358	1275.10901	-365.72614	-309.06995	1242.13684	-334.87143	-253.98546	1213.42944	-462.73102	-238.38277	1250.70654	-549.24481	-137.88876	1321.92212	-557.54321	-149.75491	1250.87439	-605.25720	-128.45398	1288.37866	230.92020	-440.36023	744.49603	203.18085	-459.13943	561.83032	186.03702	-379.88092	654.41583	216.10246	-450.22128	656.31329	200.76564	-451.44119	465.79868	44.85043	-468.44809	449.81354	138.74168	-427.57864	332.49680	166.05222	-430.28485	149.05472	219.36316	-463.73187	251.34158	154.75308	-434.97040	240.76396	216.32475	-467.07281	70.09938	136.83110	-458.93082	68.62389	191.58492	-521.55499	40.18549	164.62686	-365.14743	45.98235	220.15251	-387.81802	37.11636	176.64790	-306.69467	27.55652	-200.43095	-413.15381	759.15491	-174.52156	-425.70563	570.85046	-145.02588	-355.62500	669.89648	-187.75949	-415.83505	665.30682	-177.14539	-466.09921	466.24725	-17.00470	-458.56808	449.93527	-123.55550	-430.12415	347.36215	-140.47241	-441.42734	165.96344	-193.98097	-478.96225	265.79648	-130.87196	-444.52045	256.37466	-188.98137	-494.24408	71.31093	-116.64288	-465.31851	70.70366	-147.67433	-532.73834	33.59126	-150.35107	-377.99261	51.09372	-204.23607	-404.26215	33.71572	-159.34816	-321.37704	25.10584	19.21229	-612.96826	762.85211	-152.81212	-479.78131	71.00729	-92.44046	-451.76285	775.98969	-86.95300	-461.36917	496.09445	-96.02177	-471.35699	496.36786	-106.01113	-462.28586	496.40277	-97.84221	-446.45120	457.89252	-71.66420	-461.11139	457.68015	-95.14539	-493.76114	483.92700	-119.30952	-463.40314	458.45099	-89.05606	-458.04742	769.65820	-91.82672	-464.46881	776.14868	-95.21111	-458.18427	782.48010	-105.94170	-449.74582	734.81836	-95.95233	-458.81696	734.78345	-105.02110	-468.80478	735.05682	-124.19363	-459.89676	757.50439	-96.94237	-452.29803	496.12936	-122.98168	-319.35535	17.35492	-211.40987	-383.00809	-13.58105	-154.41985	-547.38403	-17.81701	-110.94061	-539.06830	-5.31085	-156.10617	-553.62500	76.79380	-165.50629	-508.68268	79.59088	-92.13359	-458.11584	776.06915	-118.20576	-505.69824	938.29828	-72.00025	-467.03970	806.45923	-165.89319	-420.62012	873.22296	-67.51342	-464.14883	744.22137	-97.07504	-462.33365	458.09125	-28.09666	-643.31854	901.74933	-109.81389	-433.60483	450.71271	-130.88866	-471.96213	146.67726	-137.30566	-487.19592	148.28792	-163.21681	-484.95105	151.91774	-161.76855	-441.68933	110.16958	-114.66246	-464.65125	80.66790	-139.97334	-496.21014	109.48875	-188.73230	-494.21344	76.83004	-55.34281	-462.44040	452.08694	-91.26299	-476.87253	457.90970	-127.18317	-491.30466	463.73245	-112.58150	-454.91901	380.81064	-97.44640	-461.49353	378.92764	-103.86342	-476.72736	380.53830	-126.18255	-473.03925	383.58585	-146.02374	-465.38760	148.56026	-173.32613	-398.16147	666.63397	-152.66963	-450.17123	259.70737	24.00000	2.00000	2006.00000	1.85456	-475.98956	891.08423	6.52852	-451.32291	783.49744	1.85456	-475.98956	891.08423	0.00000	0.00000	0.00000	0.00000	0.00000	0.00000	-16.62079	-503.32010	1507.18909	-97.07504	-462.33365	458.09125	-147.67433	-532.73834	33.59126	-152.81212	-479.78131	71.00729	-6.43715	-370.94385	882.20306	122.80803	-459.94464	457.80609	191.58492	-521.55499	40.18549	176.57793	-463.00183	69.36163	-13.42048	-503.84546	1321.98145	0.00000	0.00000	0.00000	-6.43715	-370.94385	882.20306	176.57793	-463.00183	69.36163	104.50217	-437.89557	790.58228	110.74310	-459.15219	497.30313	121.72662	-468.04642	498.29556	130.64479	-457.03757	498.25778	121.08690	-443.35873	456.94760	96.27246	-462.76416	456.53320	124.84091	-491.88327	486.17270	146.02666	-457.47757	458.91989	102.22603	-445.19067	784.10413	105.87908	-451.16431	791.26904	101.52133	-444.57410	797.42896	119.71600	-435.17255	747.74146	110.79784	-446.18143	747.77924	121.78136	-455.07565	748.77167	139.41713	-441.93045	772.52960	119.66126	-448.14334	497.26535	128.82520	-318.28754	5.47477	230.83974	-364.70261	-10.86317	207.15627	-537.09949	-8.95024	161.70306	-536.91376	-1.88113	198.56355	-537.93964	85.48736	198.81873	-491.94238	85.91979	105.19063	-444.52994	790.92566	113.03356	-489.77728	955.70825	82.15929	-456.42572	818.06586	157.84186	-398.33078	897.59686	86.64613	-453.53485	755.82800	122.80803	-459.94464	457.80609	48.98312	-638.01160	907.55267	127.07635	-428.79648	450.23355	154.23192	-461.19427	145.43651	164.62660	-474.09387	146.97690	189.00800	-464.78256	150.27858	175.19208	-423.68448	108.45152	135.78706	-458.89255	79.51934	169.20537	-482.20190	108.08337	215.21800	-466.98880	74.74171	82.57150	-471.56232	452.32785	121.21158	-475.54929	457.70795	159.85165	-479.53625	463.08801	134.75935	-448.85260	380.19086	121.96999	-459.35999	378.50320	132.36467	-472.25955	380.04358	152.88205	-462.54956	382.80725	167.02129	-450.68689	147.12416	206.71269	-426.46021	653.58075	174.71902	-440.53180	244.29770	10.14627	-581.03528	899.96533	5.29145	-418.50446	769.91656	-13.42048	-503.84546	1321.98145	-80.00000	0.00000	0.00000	-80.00000	0.00000	0.00000	-19.53721	-579.51813	1482.99500	-100.93447	-382.43304	457.09140	-227.67433	-532.73834	33.59126	-182.50597	-405.50198	71.93487	-11.41699	-291.37408	875.58075	114.56161	-380.47717	453.69272	111.58492	-521.55499	40.18549	184.71979	-383.41879	69.86232	-13.37146	-424.01221	1327.14404	200.00000	0.00000	0.00000	0.00000	0.00000	80.00000	0.00000	0.00000	80.00000	-18.32027	-527.46570	1583.43933	-95.83208	-461.27271	538.07458	-147.67433	-532.73834	113.59126	-141.42168	-476.21570	150.11194	-12.85059	-364.72873	961.70300	118.58755	-456.25183	537.60931	191.58492	-521.55499	120.18549	165.60896	-462.37814	148.60362	-16.24875	-509.00314	1401.76489	0.00000	200.00000	0.00000	0.00000	80.00000	0.00000	0.00000	80.00000	0.00000	-96.54955	-500.02640	1506.45056	-17.17786	-458.49057	456.79868	-147.67433	-452.73834	33.59126	-79.40549	-450.28772	59.10790	73.14971	-365.46423	888.19513	202.26987	-451.50150	461.61783	191.58492	-441.55499	40.18549	255.40300	-471.13519	80.33690	66.52950	-504.07684	1324.80066	0.00000	0.00000	200.00000	-0.10099	0.10015	0.07719	0.06180	-0.06848	-0.00765	-247.67433	-532.73834	33.59126	-147.67433	-432.73834	33.59126	91.58492	-521.55499	40.18549	191.58492	-421.55499	40.18549 
6	0.025	-97.06799	-462.33792	458.08841	220.85245	-462.45459	449.21039	-97.21152	-144.43008	448.77115	-88.19037	-453.02026	775.87231	-156.41196	-481.24008	71.59766	192.86154	-481.87961	25.43468	-164.96529	-124.01477	1.93347	-109.47866	-411.05588	425.72708	-6.43391	-370.95486	882.21857	231.62210	-371.00638	881.59985	-6.39242	-172.57497	881.66785	-5.91818	-370.40427	1080.59790	122.78352	-459.95886	457.82120	456.69452	-459.93802	458.22476	122.76214	-126.04794	458.26935	122.38000	-460.40701	791.73181	172.76147	-462.59518	68.83812	533.70813	-462.53931	121.15118	165.92085	-100.95865	115.65038	120.89756	-509.90457	426.73633	-51.26482	-419.39532	1531.73401	26.64082	-419.68985	1535.87036	-82.30094	-583.06464	1481.73401	40.46038	-591.01453	1479.44849	-14.45506	-574.55389	1345.73169	-7.64253	-566.39673	1081.48145	-12.36594	-433.13995	1298.22778	-13.11941	-360.10849	1196.18152	132.47191	-561.08087	1258.07922	-160.61873	-381.57739	870.62018	147.75092	-360.33234	893.81683	-37.04991	-579.17578	898.56836	57.37630	-582.89496	901.35815	121.62640	-483.92734	1326.05554	257.46469	-431.07947	1310.83618	381.80188	-372.48816	1277.07336	356.78259	-289.02527	1230.76746	484.26117	-306.91360	1265.45166	568.29974	-243.58424	1348.71179	577.21704	-228.80226	1277.25549	624.53400	-235.22749	1314.59448	-165.13005	-481.61319	1312.78809	-292.96121	-397.42239	1275.14807	-365.57458	-309.06354	1242.10559	-334.92599	-254.02060	1213.50452	-462.65024	-238.44781	1250.84009	-549.23297	-137.93456	1322.03137	-557.66309	-149.79761	1250.76770	-605.26801	-128.47775	1288.49988	230.91527	-440.34082	744.49976	203.16391	-459.14655	561.85834	185.53107	-379.70166	654.14673	216.10905	-450.24649	656.30359	200.72337	-451.45547	465.81393	44.84368	-468.46219	449.82837	138.69348	-427.52985	332.53485	166.04765	-430.28958	149.06909	219.36206	-463.74118	251.35985	154.75720	-434.99634	240.76161	216.33762	-467.01501	70.10735	136.91415	-458.96460	68.64635	191.59067	-521.58466	40.22459	164.63116	-365.14923	45.98264	220.16380	-387.82312	37.12062	176.54692	-306.82257	27.53890	-200.43536	-413.16187	759.15320	-174.52240	-425.69894	570.85089	-145.04495	-355.65344	669.89423	-187.77635	-415.84143	665.32422	-177.14430	-466.11636	466.25119	-16.99167	-458.55945	449.92560	-123.54173	-430.13345	347.35648	-140.45407	-441.50879	165.95309	-193.99480	-478.96768	265.81619	-130.87978	-444.51755	256.38281	-188.98871	-494.25226	71.33739	-116.65079	-465.34299	70.69302	-147.55981	-532.73480	33.52227	-150.35808	-378.00037	51.09954	-204.21356	-404.22971	33.80506	-159.33855	-321.37851	25.09966	19.22326	-613.00836	762.82843	-152.81975	-479.79761	71.01520	-92.45535	-451.78323	775.98773	-86.94852	-461.37387	496.09229	-96.01577	-471.36310	496.36459	-106.00654	-462.29352	496.39935	-97.83759	-446.45557	457.89044	-71.65730	-461.11169	457.67899	-95.13515	-493.76648	483.92261	-119.30234	-463.41083	458.44662	-89.06959	-458.06693	769.65619	-91.83968	-464.48911	776.14612	-95.22544	-458.20541	782.47766	-105.95428	-449.76608	734.81567	-95.96351	-458.83566	734.78088	-105.03076	-468.82492	735.05322	-124.20610	-459.92102	757.50000	-96.93929	-452.30429	496.12704	-123.06746	-319.28751	17.35895	-211.49048	-382.99478	-13.47939	-154.37672	-547.32343	-17.88109	-110.88581	-538.97949	-5.43442	-155.91957	-553.61304	76.72896	-165.35110	-508.67953	79.56230	-92.14751	-458.13617	776.06696	-118.20992	-505.74084	938.32074	-72.00823	-467.06393	806.45990	-165.91394	-420.64648	873.24457	-67.52525	-464.16776	744.21191	-97.06799	-462.33789	458.08838	-28.08195	-643.37622	901.74927	-109.80118	-433.60764	450.70865	-130.89278	-471.97833	146.68245	-137.31259	-487.21048	148.29419	-163.22266	-484.96036	151.92464	-161.76727	-441.70230	110.17467	-114.66759	-464.67477	80.67348	-139.98323	-496.22632	109.49644	-188.74184	-494.22208	76.83985	-55.33682	-462.45319	452.08289	-91.25890	-476.87766	457.90753	-127.18099	-491.30209	463.73218	-112.57515	-454.92505	380.80939	-97.44171	-461.50250	378.92636	-103.86153	-476.73465	380.53812	-126.17938	-473.04208	383.58609	-146.02621	-465.40088	148.56549	-173.33424	-398.17142	666.63275	-152.66353	-450.20331	259.70859	24.00000	2.00000	2006.00000	1.86464	-475.99512	891.09088	6.53077	-451.33774	783.48987	1.86464	-475.99512	891.09088	0.00000	0.00000	0.00000	0.00000	0.00000	0.00000	-16.61614	-503.29108	1507.19678	-97.06799	-462.33789	458.08838	-147.55981	-532.73480	33.52227	-152.81975	-479.79761	71.01520	-6.43391	-370.95486	882.21851	122.78352	-459.95883	457.82117	191.59067	-521.58466	40.22459	176.62589	-462.98981	69.37685	-13.41050	-503.84692	1321.97974	0.00000	0.00000	0.00000	-6.43391	-370.95486	882.21851	176.62589	-462.98981	69.37685	104.52052	-437.90558	790.56940	110.72460	-459.16586	497.31613	121.70739	-468.05911	498.30728	130.62459	-457.05112	498.26819	121.06219	-443.37445	456.96262	96.25021	-462.77850	456.55173	124.82024	-491.89401	486.18558	146.00018	-457.49161	458.93188	102.24388	-445.20020	784.09229	105.89759	-451.17310	791.25623	101.54090	-444.58340	797.41595	119.72759	-435.18341	747.73047	110.81040	-446.19141	747.76959	121.79320	-455.08466	748.76074	139.43016	-441.93991	772.51404	119.64179	-448.15787	497.27701	128.83333	-318.29938	5.46293	230.84706	-364.71994	-10.86436	207.16138	-537.11603	-8.90711	161.70827	-536.92792	-1.83750	198.56978	-537.93195	85.53080	198.82555	-491.93457	85.95148	105.20906	-444.53934	790.91278	113.06732	-489.80704	955.71826	82.17659	-456.44141	818.05823	157.87418	-398.33917	897.60107	86.65958	-453.54523	755.81024	122.78352	-459.95883	457.82117	49.01046	-638.06500	907.54840	127.02061	-428.80603	450.24677	154.26414	-461.19977	145.44952	164.67233	-474.08865	146.99277	189.04396	-464.75131	150.29808	175.19194	-423.66995	108.46439	135.82796	-458.92242	79.52734	169.26651	-482.19510	108.09972	215.27013	-466.93594	74.76412	82.55917	-471.61938	452.33664	121.20341	-475.56555	457.72391	159.84764	-479.51169	463.11118	134.73709	-448.85999	380.20523	121.95872	-459.38120	378.51611	132.36691	-472.27005	380.05936	152.87411	-462.53809	382.82593	167.04250	-450.67859	147.13864	206.53674	-426.39633	653.50159	174.70107	-440.52020	244.32126	10.16319	-581.03540	899.96326	5.29097	-418.51425	769.90942	-13.41050	-503.84692	1321.97974	-80.00000	0.00000	0.00000	-80.00000	0.00000	0.00000	-19.52380	-579.49225	1483.01135	-100.93964	-382.43787	457.09250	-227.55981	-532.73480	33.52227	-182.49901	-405.51245	71.93925	-11.41818	-291.38486	875.60248	114.53541	-380.49158	453.70728	111.59067	-521.58466	40.22459	184.68422	-383.39825	69.87277	-13.35876	-424.01367	1327.14185	200.00000	0.00000	0.00000	0.00000	0.00000	80.00000	0.00000	0.00000	80.00000	-18.31113	-527.42828	1583.44971	-95.83031	-461.28101	538.07184	-147.55981	-532.73480	113.52227	-141.42607	-476.22946	150.11926	-12.84200	-364.74597	961.71936	118.57295	-456.26456	537.62482	191.59067	-521.58466	120.22459	165.64241	-462.37152	148.61687	-16.23885	-509.00397	1401.76318	0.00000	200.00000	0.00000	0.00000	80.00000	0.00000	0.00000	80.00000	0.00000	-96.54531	-500.00720	1506.45947	-17.17131	-458.48245	456.80112	-147.55981	-452.73480	33.52227	-79.40772	-450.31915	59.11168	73.15311	-365.47174	888.20532	202.24571	-451.51443	461.62280	191.59067	-441.58466	40.22459	255.45752	-471.03967	80.36653	66.53947	-504.08102	1324.79883	0.00000	0.00000	200.00000	-0.10099	0.10015	0.07719	0.06180	-0.06848	-0.00765	-247.55981	-532.73480	33.52227	-147.55981	-432.73480	33.52227	91.59067	-521.58466	40.22459	191.59067	-421.58466	40.22459 
